<svg xmlns="http://www.w3.org/2000/svg" viewBox="0 0 1600 900" role="img" aria-label="Neon night city concept">
  <defs>
    <linearGradient id="sky" x1="0" x2="1" y1="0" y2="1">
      <stop offset="0" stop-color="#03070b"/>
      <stop offset="0.45" stop-color="#071018"/>
      <stop offset="1" stop-color="#120912"/>
    </linearGradient>
    <radialGradient id="cyanGlow" cx="72%" cy="30%" r="44%">
      <stop offset="0" stop-color="#00f0ff" stop-opacity=".46"/>
      <stop offset="1" stop-color="#00f0ff" stop-opacity="0"/>
    </radialGradient>
    <radialGradient id="pinkGlow" cx="18%" cy="66%" r="38%">
      <stop offset="0" stop-color="#ff2a6d" stop-opacity=".34"/>
      <stop offset="1" stop-color="#ff2a6d" stop-opacity="0"/>
    </radialGradient>
    <pattern id="windows" width="42" height="34" patternUnits="userSpaceOnUse">
      <rect x="4" y="5" width="4" height="10" fill="#fcee09" opacity=".35"/>
      <rect x="20" y="10" width="4" height="8" fill="#00f0ff" opacity=".28"/>
      <rect x="32" y="3" width="3" height="12" fill="#ff2a6d" opacity=".22"/>
    </pattern>
    <filter id="blur">
      <feGaussianBlur stdDeviation="12"/>
    </filter>
  </defs>
  <rect width="1600" height="900" fill="url(#sky)"/>
  <rect width="1600" height="900" fill="url(#cyanGlow)"/>
  <rect width="1600" height="900" fill="url(#pinkGlow)"/>
  <g opacity=".22" stroke="#00f0ff" stroke-width="1">
    <path d="M0 190H1600M0 384H1600M0 578H1600"/>
    <path d="M144 0V900M392 0V900M688 0V900M1032 0V900M1328 0V900"/>
  </g>
  <g transform="translate(0 120)">
    <rect x="100" y="270" width="150" height="510" fill="#071018"/>
    <rect x="122" y="300" width="106" height="430" fill="url(#windows)" opacity=".85"/>
    <rect x="280" y="160" width="190" height="620" fill="#050b10"/>
    <rect x="305" y="190" width="140" height="540" fill="url(#windows)" opacity=".78"/>
    <rect x="520" y="245" width="130" height="535" fill="#08121a"/>
    <rect x="538" y="270" width="92" height="470" fill="url(#windows)" opacity=".82"/>
    <rect x="700" y="95" width="230" height="685" fill="#04090d"/>
    <rect x="730" y="128" width="166" height="580" fill="url(#windows)" opacity=".74"/>
    <rect x="984" y="210" width="185" height="570" fill="#081018"/>
    <rect x="1010" y="238" width="132" height="500" fill="url(#windows)" opacity=".78"/>
    <rect x="1208" y="62" width="260" height="718" fill="#04080c"/>
    <rect x="1240" y="94" width="196" height="620" fill="url(#windows)" opacity=".74"/>
  </g>
  <g fill="none" stroke-linecap="square">
    <path d="M110 720h480l55-60h310l45-46h340" stroke="#fcee09" stroke-width="6" opacity=".72"/>
    <path d="M62 762h420l44-38h280l38-36h628" stroke="#00f0ff" stroke-width="3" opacity=".46"/>
    <path d="M1010 158h330l64 54h128" stroke="#ff2a6d" stroke-width="4" opacity=".46"/>
  </g>
  <g filter="url(#blur)" opacity=".45">
    <rect x="0" y="760" width="1600" height="140" fill="#fcee09" opacity=".14"/>
    <rect x="980" y="190" width="340" height="160" fill="#00f0ff" opacity=".18"/>
    <rect x="120" y="520" width="280" height="160" fill="#ff2a6d" opacity=".18"/>
  </g>
  <g opacity=".42">
    <rect x="70" y="72" width="270" height="2" fill="#fcee09"/>
    <rect x="1118" y="114" width="350" height="2" fill="#00f0ff"/>
    <rect x="1160" y="128" width="185" height="8" fill="#fcee09"/>
    <rect x="86" y="92" width="84" height="8" fill="#ff2a6d"/>
  </g>
</svg>
